<svg xmlns="http://www.w3.org/2000/svg" width="256" height="256" viewBox="0 0 256 256" fill="none">
  <defs>
    <linearGradient id="plate" x1="52" y1="40" x2="224" y2="232" gradientUnits="userSpaceOnUse">
      <stop stop-color="#fbfaf7"/>
      <stop offset="0.58" stop-color="#eef2f4"/>
      <stop offset="1" stop-color="#dfe8ec"/>
    </linearGradient>
    <linearGradient id="rim" x1="54" y1="38" x2="216" y2="236" gradientUnits="userSpaceOnUse">
      <stop stop-color="#ffffff" stop-opacity="0.92"/>
      <stop offset="0.58" stop-color="#d7dee2" stop-opacity="0.36"/>
      <stop offset="1" stop-color="#ffffff" stop-opacity="0.86"/>
    </linearGradient>
    <filter id="shadow" x="4" y="8" width="248" height="248" color-interpolation-filters="sRGB">
      <feDropShadow dx="0" dy="10" stdDeviation="10" flood-color="#1f2731" flood-opacity="0.16"/>
      <feDropShadow dx="0" dy="26" stdDeviation="22" flood-color="#1f2731" flood-opacity="0.14"/>
    </filter>
  </defs>
  <rect width="256" height="256" rx="64" fill="#f5f2ec"/>
  <rect x="30" y="30" width="196" height="196" rx="58" fill="url(#plate)" filter="url(#shadow)"/>
  <path d="M66 48c19-12 47-12 83-12h20c27 0 49 22 49 49v84c0 26-21 47-47 47H84c-26 0-47-21-47-47V87c0-17 11-33 29-39Z" fill="#ffffff" opacity="0.22"/>
  <rect x="33" y="33" width="190" height="190" rx="56" stroke="url(#rim)" stroke-width="6"/>
  <g stroke="#344358" stroke-linecap="round" stroke-linejoin="round">
    <g fill="none" stroke-width="12">
      <path d="M70 91V73c0-10 8-18 18-18h23"/>
      <path d="M187 91V73c0-10-8-18-18-18h-23"/>
      <path d="M70 164v19c0 10 8 18 18 18h23"/>
      <path d="M187 164v19c0 10-8 18-18 18h-23"/>
    </g>
    <path d="M88 181c31-5 53-28 73-62" fill="none" stroke-width="11" stroke-dasharray="13 21"/>
    <path d="M152 121 188 85c4-4 11-5 15-1 4 5 4 11-1 15l-31 32 14 38c1 4-2 8-6 7l-23-32-23 18c-2 2-5 1-7-1l-9-8 24-22-37-14c-4-2-4-7-1-9l49 13Z" fill="#2f3d51" stroke-width="3" transform="translate(50 37) scale(0.72)"/>
  </g>
  <path d="M56 88c8-25 25-39 53-42" stroke="#ffffff" stroke-width="12" stroke-linecap="round" opacity="0.64"/>
</svg>
